<svg width="48" height="48" viewBox="0 0 48 48" fill="none" xmlns="http://www.w3.org/2000/svg">
<rect x="2.81458" y="39.5696" width="42.161" height="2.81017" fill="#5C45EA"/>
<rect x="8.83752" y="19.0955" width="18.0654" height="2.81074" transform="rotate(90 8.83752 19.0955)" fill="#5C45EA"/>
<path d="M42.3655 16.2852L6.02673 16.2852L3.01523 13.0735L45.1763 13.0735L42.3655 16.2852Z" fill="#5C45EA"/>
<rect x="14.4589" y="19.0955" width="18.0654" height="2.81074" transform="rotate(90 14.4589 19.0955)" fill="#5C45EA"/>
<rect x="20.0806" y="19.0955" width="18.0654" height="2.81074" transform="rotate(90 20.0806 19.0955)" fill="#5C45EA"/>
<path d="M47.987 11.8692L24.0958 3.30557L0.00373649 11.8692L0.00373595 8.45688L24.0958 0.0263806L47.987 8.45688L47.987 11.8692Z" fill="#5C45EA"/>
<rect x="25.7019" y="19.0955" width="18.0654" height="2.81074" transform="rotate(90 25.7019 19.0955)" fill="#5C45EA"/>
<rect x="31.3234" y="19.0955" width="18.0654" height="2.81074" transform="rotate(90 31.3234 19.0955)" fill="#5C45EA"/>
<rect x="36.9449" y="19.0955" width="18.0654" height="2.81074" transform="rotate(90 36.9449 19.0955)" fill="#5C45EA"/>
<rect x="42.5663" y="19.0955" width="18.0654" height="2.81074" transform="rotate(90 42.5663 19.0955)" fill="#5C45EA"/>
<rect x="0.00366211" y="45.1899" width="47.7825" height="2.81017" fill="#5C45EA"/>
</svg>
