<svg width="36" height="36" viewBox="0 0 36 36" fill="none" xmlns="http://www.w3.org/2000/svg">
<rect x="2.11072" y="29.6768" width="31.6208" height="2.10763" fill="#5C45EA"/>
<rect x="6.62805" y="14.3213" width="13.549" height="2.10805" transform="rotate(90 6.62805 14.3213)" fill="#5C45EA"/>
<path d="M31.774 12.2139L4.51993 12.2139L2.2613 9.80515L33.8821 9.80515L31.774 12.2139Z" fill="#5C45EA"/>
<rect x="10.8444" y="14.3213" width="13.549" height="2.10805" transform="rotate(90 10.8444 14.3213)" fill="#5C45EA"/>
<rect x="15.0603" y="14.3213" width="13.549" height="2.10805" transform="rotate(90 15.0603 14.3213)" fill="#5C45EA"/>
<path d="M35.9902 8.90192L18.0717 2.47918L0.00271081 8.90192L0.0027085 6.34266L18.0717 0.0197854L35.9902 6.34266L35.9902 8.90192Z" fill="#5C45EA"/>
<rect x="19.2764" y="14.3213" width="13.549" height="2.10805" transform="rotate(90 19.2764 14.3213)" fill="#5C45EA"/>
<rect x="23.4923" y="14.3213" width="13.549" height="2.10805" transform="rotate(90 23.4923 14.3213)" fill="#5C45EA"/>
<rect x="27.7086" y="14.3213" width="13.549" height="2.10805" transform="rotate(90 27.7086 14.3213)" fill="#5C45EA"/>
<rect x="31.9249" y="14.3213" width="13.549" height="2.10805" transform="rotate(90 31.9249 14.3213)" fill="#5C45EA"/>
<rect x="0.00268555" y="33.8926" width="35.8369" height="2.10763" fill="#5C45EA"/>
</svg>
