<svg width="52" height="52" viewBox="0 0 52 52" fill="none" xmlns="http://www.w3.org/2000/svg">
<rect x="3.04907" y="42.8669" width="45.6745" height="3.04435" fill="#5C45EA"/>
<rect x="9.57397" y="20.6867" width="19.5708" height="3.04496" transform="rotate(90 9.57397 20.6867)" fill="#5C45EA"/>
<path d="M45.8961 17.6423L6.52904 17.6423L3.26658 14.1631L48.941 14.1631L45.8961 17.6423Z" fill="#5C45EA"/>
<rect x="15.6639" y="20.6867" width="19.5708" height="3.04496" transform="rotate(90 15.6639 20.6867)" fill="#5C45EA"/>
<rect x="21.7539" y="20.6867" width="19.5708" height="3.04496" transform="rotate(90 21.7539 20.6867)" fill="#5C45EA"/>
<path d="M51.9859 12.8583L26.1037 3.58104L0.00404023 12.8583L0.00403901 9.16163L26.1037 0.0285891L51.9859 9.16164L51.9859 12.8583Z" fill="#5C45EA"/>
<rect x="27.8438" y="20.6867" width="19.5708" height="3.04496" transform="rotate(90 27.8438 20.6867)" fill="#5C45EA"/>
<rect x="33.9337" y="20.6867" width="19.5708" height="3.04496" transform="rotate(90 33.9337 20.6867)" fill="#5C45EA"/>
<rect x="40.0236" y="20.6867" width="19.5708" height="3.04496" transform="rotate(90 40.0236 20.6867)" fill="#5C45EA"/>
<rect x="46.1135" y="20.6867" width="19.5708" height="3.04496" transform="rotate(90 46.1135 20.6867)" fill="#5C45EA"/>
<rect x="0.00402832" y="48.9557" width="51.7644" height="3.04435" fill="#5C45EA"/>
</svg>
