<svg width="22" height="25" viewBox="0 0 22 25" fill="none" xmlns="http://www.w3.org/2000/svg">
<path d="M11 2.44444C9.86546 2.44444 8.77739 2.89514 7.97515 3.69738C7.17292 4.49962 6.72222 5.58768 6.72222 6.72222C6.72222 7.85676 7.17292 8.94483 7.97515 9.74707C8.77739 10.5493 9.86546 11 11 11C12.1345 11 13.2226 10.5493 14.0248 9.74707C14.8271 8.94483 15.2778 7.85676 15.2778 6.72222C15.2778 5.58768 14.8271 4.49962 14.0248 3.69738C13.2226 2.89514 12.1345 2.44444 11 2.44444ZM4.27778 6.72222C4.27778 4.93938 4.98601 3.22955 6.24667 1.96889C7.50733 0.708232 9.21716 0 11 0C12.7828 0 14.4927 0.708232 15.7533 1.96889C17.014 3.22955 17.7222 4.93938 17.7222 6.72222C17.7222 8.50507 17.014 10.2149 15.7533 11.4756C14.4927 12.7362 12.7828 13.4444 11 13.4444C9.21716 13.4444 7.50733 12.7362 6.24667 11.4756C4.98601 10.2149 4.27778 8.50507 4.27778 6.72222ZM0 20.7778C0 19.157 0.643847 17.6026 1.7899 16.4566C2.93596 15.3105 4.49034 14.6667 6.11111 14.6667H15.8889C17.5097 14.6667 19.064 15.3105 20.2101 16.4566C21.3562 17.6026 22 19.157 22 20.7778V24.4444H0V20.7778ZM6.11111 17.1111C5.13865 17.1111 4.20602 17.4974 3.51839 18.1851C2.83075 18.8727 2.44444 19.8053 2.44444 20.7778V22H19.5556V20.7778C19.5556 19.8053 19.1692 18.8727 18.4816 18.1851C17.794 17.4974 16.8613 17.1111 15.8889 17.1111H6.11111Z" fill="#405E95"/>
</svg>
