<svg width="20" height="23" viewBox="0 0 20 23" fill="none" xmlns="http://www.w3.org/2000/svg">
<path d="M10 2.22222C8.9686 2.22222 7.97945 2.63194 7.25014 3.36125C6.52083 4.09056 6.11111 5.07971 6.11111 6.11111C6.11111 7.14251 6.52083 8.13166 7.25014 8.86097C7.97945 9.59028 8.9686 10 10 10C11.0314 10 12.0206 9.59028 12.7499 8.86097C13.4792 8.13166 13.8889 7.14251 13.8889 6.11111C13.8889 5.07971 13.4792 4.09056 12.7499 3.36125C12.0206 2.63194 11.0314 2.22222 10 2.22222ZM3.88889 6.11111C3.88889 4.49034 4.53274 2.93596 5.67879 1.7899C6.82485 0.643848 8.37923 0 10 0C11.6208 0 13.1752 0.643848 14.3212 1.7899C15.4673 2.93596 16.1111 4.49034 16.1111 6.11111C16.1111 7.73188 15.4673 9.28626 14.3212 10.4323C13.1752 11.5784 11.6208 12.2222 10 12.2222C8.37923 12.2222 6.82485 11.5784 5.67879 10.4323C4.53274 9.28626 3.88889 7.73188 3.88889 6.11111ZM0 18.8889C0 17.4155 0.585316 16.0024 1.62718 14.9605C2.66905 13.9186 4.08213 13.3333 5.55556 13.3333H14.4444C15.9179 13.3333 17.3309 13.9186 18.3728 14.9605C19.4147 16.0024 20 17.4155 20 18.8889V22.2222H0V18.8889ZM5.55556 15.5556C4.6715 15.5556 3.82365 15.9067 3.19853 16.5319C2.57341 17.157 2.22222 18.0048 2.22222 18.8889V20H17.7778V18.8889C17.7778 18.0048 17.4266 17.157 16.8015 16.5319C16.1763 15.9067 15.3285 15.5556 14.4444 15.5556H5.55556Z" fill="#5C45EA"/>
</svg>
