<svg width="25" height="28" viewBox="0 0 25 28" fill="none" xmlns="http://www.w3.org/2000/svg">
<path d="M12.5 2.77778C11.2108 2.77778 9.97431 3.28993 9.06268 4.20156C8.15104 5.1132 7.63889 6.34964 7.63889 7.63889C7.63889 8.92813 8.15104 10.1646 9.06268 11.0762C9.97431 11.9878 11.2108 12.5 12.5 12.5C13.7892 12.5 15.0257 11.9878 15.9373 11.0762C16.849 10.1646 17.3611 8.92813 17.3611 7.63889C17.3611 6.34964 16.849 5.1132 15.9373 4.20156C15.0257 3.28993 13.7892 2.77778 12.5 2.77778ZM4.86111 7.63889C4.86111 5.61293 5.66592 3.66995 7.09849 2.23738C8.53106 0.804809 10.474 0 12.5 0C14.526 0 16.4689 0.804809 17.9015 2.23738C19.3341 3.66995 20.1389 5.61293 20.1389 7.63889C20.1389 9.66485 19.3341 11.6078 17.9015 13.0404C16.4689 14.473 14.526 15.2778 12.5 15.2778C10.474 15.2778 8.53106 14.473 7.09849 13.0404C5.66592 11.6078 4.86111 9.66485 4.86111 7.63889ZM0 23.6111C0 21.7693 0.731645 20.003 2.03398 18.7006C3.33632 17.3983 5.10266 16.6667 6.94444 16.6667H18.0556C19.8973 16.6667 21.6637 17.3983 22.966 18.7006C24.2684 20.003 25 21.7693 25 23.6111V27.7778H0V23.6111ZM6.94444 19.4444C5.83938 19.4444 4.77957 19.8834 3.99817 20.6648C3.21676 21.4462 2.77778 22.506 2.77778 23.6111V25H22.2222V23.6111C22.2222 22.506 21.7832 21.4462 21.0018 20.6648C20.2204 19.8834 19.1606 19.4444 18.0556 19.4444H6.94444Z" fill="#5C45EA"/>
</svg>
