<svg width="22" height="22" viewBox="0 0 22 22" fill="none" xmlns="http://www.w3.org/2000/svg">
<path d="M10.945 17.6C11.33 17.6 11.6556 17.4669 11.9218 17.2007C12.188 16.9345 12.3207 16.6093 12.32 16.225C12.32 15.84 12.1873 15.5144 11.9218 15.2482C11.6563 14.982 11.3307 14.8493 10.945 14.85C10.56 14.85 10.2348 14.9831 9.9693 15.2493C9.70383 15.5155 9.57073 15.8407 9.57 16.225C9.57 16.61 9.7031 16.9356 9.9693 17.2018C10.2355 17.468 10.5607 17.6007 10.945 17.6ZM9.955 13.365H11.99C11.99 12.76 12.0589 12.2833 12.1968 11.935C12.3347 11.5867 12.7241 11.11 13.365 10.505C13.8417 10.0283 14.2175 9.5744 14.4925 9.1432C14.7675 8.712 14.905 8.19427 14.905 7.59C14.905 6.56333 14.5292 5.775 13.7775 5.225C13.0258 4.675 12.1367 4.4 11.11 4.4C10.065 4.4 9.2169 4.675 8.5657 5.225C7.9145 5.775 7.46093 6.435 7.205 7.205L9.02 7.92C9.11167 7.59 9.3181 7.2325 9.6393 6.8475C9.9605 6.4625 10.4507 6.27 11.11 6.27C11.6967 6.27 12.1367 6.4306 12.43 6.7518C12.7233 7.073 12.87 7.42573 12.87 7.81C12.87 8.17667 12.76 8.5206 12.54 8.8418C12.32 9.163 12.045 9.46073 11.715 9.735C10.9083 10.45 10.4133 10.9908 10.23 11.3575C10.0467 11.7242 9.955 12.3933 9.955 13.365ZM11 22C9.47833 22 8.04833 21.7111 6.71 21.1332C5.37167 20.5553 4.2075 19.7718 3.2175 18.7825C2.2275 17.7925 1.44393 16.6283 0.8668 15.29C0.289667 13.9517 0.000733333 12.5217 0 11C0 9.47833 0.288933 8.04833 0.8668 6.71C1.44467 5.37167 2.22823 4.2075 3.2175 3.2175C4.2075 2.2275 5.37167 1.44393 6.71 0.8668C8.04833 0.289667 9.47833 0.000733333 11 0C12.5217 0 13.9517 0.288933 15.29 0.8668C16.6283 1.44467 17.7925 2.22823 18.7825 3.2175C19.7725 4.2075 20.5564 5.37167 21.1343 6.71C21.7122 8.04833 22.0007 9.47833 22 11C22 12.5217 21.7111 13.9517 21.1332 15.29C20.5553 16.6283 19.7718 17.7925 18.7825 18.7825C17.7925 19.7725 16.6283 20.5564 15.29 21.1343C13.9517 21.7122 12.5217 22.0007 11 22ZM11 19.8C13.4567 19.8 15.5375 18.9475 17.2425 17.2425C18.9475 15.5375 19.8 13.4567 19.8 11C19.8 8.54333 18.9475 6.4625 17.2425 4.7575C15.5375 3.0525 13.4567 2.2 11 2.2C8.54333 2.2 6.4625 3.0525 4.7575 4.7575C3.0525 6.4625 2.2 8.54333 2.2 11C2.2 13.4567 3.0525 15.5375 4.7575 17.2425C6.4625 18.9475 8.54333 19.8 11 19.8Z" fill="#405E95"/>
</svg>
