<svg width="80" height="80" viewBox="0 0 80 80" fill="none" xmlns="http://www.w3.org/2000/svg">
<rect width="80" height="80" rx="20" fill="#5C45EA"/>
<rect x="17.0491" y="56.8668" width="45.6745" height="3.04435" fill="white"/>
<rect x="23.5742" y="34.6865" width="19.5708" height="3.04496" transform="rotate(90 23.5742 34.6865)" fill="white"/>
<path d="M59.8964 31.6423L20.5294 31.6423L17.2669 28.163L62.9414 28.163L59.8964 31.6423Z" fill="white"/>
<rect x="29.6643" y="34.6865" width="19.5708" height="3.04496" transform="rotate(90 29.6643 34.6865)" fill="white"/>
<rect x="35.7544" y="34.6865" width="19.5708" height="3.04496" transform="rotate(90 35.7544 34.6865)" fill="white"/>
<path d="M65.9859 26.8584L40.1037 17.5811L14.004 26.8584L14.004 23.1617L40.1037 14.0286L65.9859 23.1617L65.9859 26.8584Z" fill="white"/>
<rect x="41.844" y="34.6865" width="19.5708" height="3.04496" transform="rotate(90 41.844 34.6865)" fill="white"/>
<rect x="47.9336" y="34.6865" width="19.5708" height="3.04496" transform="rotate(90 47.9336 34.6865)" fill="white"/>
<rect x="54.0239" y="34.6865" width="19.5708" height="3.04496" transform="rotate(90 54.0239 34.6865)" fill="white"/>
<rect x="60.114" y="34.6865" width="19.5708" height="3.04496" transform="rotate(90 60.114 34.6865)" fill="white"/>
<rect x="14.0044" y="62.9557" width="51.7644" height="3.04435" fill="white"/>
</svg>
