<svg width="70" height="70" viewBox="0 0 70 70" fill="none" xmlns="http://www.w3.org/2000/svg">
<path d="M69.965 15.9153C69.9359 14.4136 69.8155 12.9151 69.6045 11.4281C69.3531 10.1054 68.9258 8.82225 68.334 7.61288C67.0385 5.05531 64.9617 2.97716 62.405 1.68008C61.2035 1.09105 59.9287 0.664936 58.6145 0.413021C57.1161 0.197699 55.606 0.0749599 54.0925 0.0455023C53.452 0.0210011 52.6225 0.0105006 52.2375 0.0105006L17.7695 0C17.3845 0 16.555 0.0105005 15.9145 0.0350017C14.4129 0.0639363 12.9145 0.184332 11.4275 0.395519C10.1049 0.646971 8.82181 1.07428 7.6125 1.66608C5.0552 2.96185 2.97721 5.03872 1.68 7.59538C1.09115 8.79704 0.665064 10.0718 0.413 11.3861C0.196711 12.8844 0.0728109 14.3947 0.0420003 15.9083C0.0210003 16.5488 0.00700033 17.3784 0.00700033 17.7634L0 52.2331C0 52.6181 0.0105 53.4477 0.035 54.0882C0.0639331 55.5899 0.184323 57.0884 0.3955 58.5754C0.64698 59.8981 1.07427 61.1812 1.666 62.3906C2.9617 64.9481 5.03846 67.0261 7.595 68.3234C8.79663 68.9122 10.0713 69.3383 11.3855 69.5905C12.8838 69.8058 14.394 69.9286 15.9075 69.958C16.548 69.9825 17.3775 69.993 17.7625 69.993L52.2305 70C52.6155 70 53.445 69.9895 54.0855 69.965C55.5871 69.936 57.0855 69.8156 58.5725 69.6045C59.8951 69.3529 61.1781 68.9256 62.3875 68.3339C64.9461 67.0387 67.0254 64.9618 68.3235 62.4046C68.9124 61.203 69.3385 59.9282 69.5905 58.6139C69.8069 57.1156 69.9308 55.6053 69.9615 54.0917C69.9825 53.4512 69.9965 52.6216 69.9965 52.2366L70 17.7704C70 17.3854 69.9895 16.5558 69.965 15.9153ZM35.7595 59.3525H35.749C31.5828 59.3516 27.4832 58.3071 23.8245 56.3143L10.5945 59.783L14.1365 46.8568C11.3941 42.0977 10.2983 36.5667 11.019 31.1214C11.7398 25.6761 14.2368 20.6207 18.1229 16.739C22.009 12.8573 27.0671 10.3662 32.513 9.65189C37.9589 8.93759 43.4883 10.04 48.244 12.7882C52.9996 15.5364 56.7158 19.7769 58.8163 24.8522C60.9168 29.9274 61.2843 35.5539 59.8619 40.8593C58.4394 46.1648 55.3065 50.8527 50.9488 54.1962C46.591 57.5398 41.252 59.3522 35.7595 59.3525Z" fill="white"/>
<path d="M35.77 13.6539C32.0638 13.6528 28.425 14.6447 25.2319 16.5264C22.0389 18.4082 19.4083 21.111 17.6137 24.3539C15.819 27.5968 14.9259 31.2612 15.0272 34.9663C15.1284 38.6713 16.2204 42.2815 18.1895 45.4215L18.683 46.2055L16.5865 53.8569L24.437 51.7988L25.193 52.2468C28.3888 54.1396 32.0347 55.1382 35.749 55.138H35.7595C41.2608 55.1389 46.5372 52.9543 50.4278 49.0647C54.3185 45.1752 56.5048 39.8993 56.5057 34.3977C56.5067 28.8961 54.3222 23.6195 50.4328 19.7286C46.5434 15.8377 41.2678 13.6513 35.7665 13.6504L35.77 13.6539ZM47.964 43.3004C47.5052 44.0581 46.8946 44.7126 46.1706 45.2228C45.4466 45.733 44.6248 46.0879 43.757 46.265C42.4467 46.4897 41.1021 46.4059 39.83 46.02C38.6235 45.644 37.4377 45.2047 36.2775 44.7039C31.9715 42.5429 28.3013 39.2995 25.627 35.292C24.1681 33.4368 23.2825 31.196 23.079 28.8447C23.0622 27.8741 23.2477 26.9107 23.6237 26.0158C23.9997 25.1209 24.558 24.3141 25.263 23.6469C25.4713 23.4092 25.7266 23.2172 26.0126 23.0829C26.2987 22.9485 26.6095 22.8748 26.9255 22.8664C27.3385 22.8664 27.755 22.8663 28.119 22.8874C28.504 22.9049 29.015 22.7403 29.519 23.9584C30.044 25.2045 31.29 28.2741 31.444 28.5856C31.5428 28.7489 31.5994 28.9343 31.6086 29.125C31.6177 29.3157 31.5792 29.5057 31.4965 29.6777C31.3395 30.0522 31.1297 30.4022 30.8735 30.7172C30.5585 31.0813 30.219 31.5293 29.939 31.8093C29.624 32.1208 29.302 32.4568 29.6625 33.0799C30.5988 34.6831 31.7677 36.1387 33.131 37.3991C34.6102 38.7143 36.3075 39.7613 38.1465 40.4932C38.7695 40.8082 39.1335 40.7522 39.4975 40.3357C39.8615 39.9192 41.055 38.5156 41.4715 37.8926C41.888 37.2696 42.301 37.3746 42.8715 37.5811C43.442 37.7876 46.5115 39.2962 47.1345 39.6112C47.7575 39.9262 48.174 40.0767 48.328 40.3357C48.4987 41.3383 48.3721 42.3689 47.964 43.3004Z" fill="white"/>
</svg>
